<svg width="1440" height="945" viewBox="0 0 1440 945" fill="none" xmlns="http://www.w3.org/2000/svg">
<path fill-rule="evenodd" clip-rule="evenodd" d="M0 51.3702H60C120 51.3702 240 51.3702 360 37.3702C480 22.3702 600 -6.62976 720 1.37024C840 8.37024 960 51.3702 1080 73.3702C1200 94.3702 1320 94.3702 1380 94.3702H1440V267.37H1380C1320 267.37 1200 267.37 1080 267.37C960 267.37 840 267.37 720 267.37C600 267.37 480 267.37 360 267.37C240 267.37 120 267.37 60 267.37H0V51.3702Z" fill="#1CA9E6"/>
<rect y="146" width="1440" height="799" fill="url(#paint0_linear)"/>
<path d="M1551.55 365.369C1611.1 409.311 1672.6 456.02 1688 525.577C1703.63 596.137 1682.01 672.316 1631.57 726.702C1585.4 776.484 1509.95 779.605 1440.85 792.077C1371.35 804.621 1302.65 822.04 1236.7 797.973C1151 766.702 1046.28 726.929 1029.86 642.107C1013.45 557.377 1109.7 497.055 1165.15 428.4C1216.04 365.401 1251.56 278.339 1334.61 264.792C1417.23 251.313 1485.65 316.74 1551.55 365.369Z" fill="#E321E7" fill-opacity="0.1"/>
<path d="M178.73 183.227C236.852 207.022 276.681 257.21 321.31 301.379C363.657 343.289 407.998 382.508 434.16 436.023C462.694 494.39 486.766 558.039 478.269 622.441C469.553 688.505 437.281 752.961 386.628 796.294C337.978 837.914 270.83 849.451 206.99 854.517C151.937 858.885 101.625 832.435 47.1727 823.229C-9.62708 813.626 -76.9428 836.191 -120.974 799.069C-164.929 762.012 -154.369 692.141 -172.863 637.724C-191.499 582.89 -248.706 531.904 -230.452 476.942C-211.679 420.414 -118.667 426.59 -86.1627 376.667C-44.4502 312.602 -85.8332 205.075 -24.0809 159.98C31.8131 119.163 114.67 157.002 178.73 183.227Z" fill="#E321E7" fill-opacity="0.1"/>
<defs>
<linearGradient id="paint0_linear" x1="720" y1="146" x2="720" y2="945" gradientUnits="userSpaceOnUse">
<stop offset="0.22595" stop-color="#1CA9E6"/>
<stop offset="1" stop-color="#1CA9E6" stop-opacity="0"/>
</linearGradient>
</defs>
</svg>
