<svg width="100" height="101" viewBox="0 0 100 101" fill="none" xmlns="http://www.w3.org/2000/svg">
<g filter="url(#filter0_i)">
<path d="M49.9999 101C77.6142 101 99.9999 78.6142 99.9999 51C99.9999 23.3858 77.6142 1 49.9999 1C22.3857 1 -6.10352e-05 23.3858 -6.10352e-05 51C-6.10352e-05 78.6142 22.3857 101 49.9999 101Z" fill="#1A9DD9"/>
</g>
<g clip-path="url(#clip0)" filter="url(#filter1_d)">
<path d="M19.9999 58.7676V80.2129C19.9999 81.1999 20.8001 82 21.787 82H79.2128C80.1998 82 80.9999 81.1999 80.9999 80.2129V58.7676L50.4999 57.5762L19.9999 58.7676Z" fill="#EDF5FF"/>
<path d="M43.3515 58.7676V82H79.2128C80.1993 82 80.9999 81.1994 80.9999 80.2129V58.7676H43.3515Z" fill="#CEE8FF"/>
<path d="M80.9999 58.7676V80.2129C80.9999 81.1994 80.1993 82 79.2128 82H50.4999V58.7676H80.9999Z" fill="#AEDAFF"/>
<path d="M36.2031 65.0187H29.0546C28.0677 65.0187 27.2675 65.8188 27.2675 66.8058V73.9542C27.2675 74.9412 28.0677 75.7413 29.0546 75.7413H36.2031C37.19 75.7413 37.9902 74.9412 37.9902 73.9542V66.8058C37.9902 65.8188 37.19 65.0187 36.2031 65.0187ZM34.416 72.1671H30.8417V68.5929H34.416V72.1671Z" fill="#CEE8FF"/>
<path d="M80.9999 33.6289L50.4999 32.4375L19.9999 33.6289V58.7676H26.3799L50.4999 57.5762L74.5723 58.7676H80.9999V33.6289Z" fill="#4EC9FF"/>
<path d="M80.9999 22.7871C80.9999 21.8001 80.1998 21 79.2128 21H21.787C20.8001 21 19.9999 21.8001 19.9999 22.7871V33.6289H80.9999V22.7871Z" fill="#4E4E4E"/>
<path d="M80.9999 33.6289L50.4999 32.4375V57.5645L74.5723 58.7676H80.9999V33.6289Z" fill="#0095FF"/>
<path d="M80.9999 22.7871V33.6289H50.4999V21H79.2128C80.1993 21 80.9999 21.8006 80.9999 22.7871Z" fill="#383838"/>
<path d="M24.787 29.5742C25.774 29.5742 26.5742 28.7741 26.5742 27.7871C26.5742 26.8001 25.774 26 24.787 26C23.8001 26 22.9999 26.8001 22.9999 27.7871C22.9999 28.7741 23.8001 29.5742 24.787 29.5742Z" fill="#E63950"/>
<path d="M30.787 29.5742C31.774 29.5742 32.5742 28.7741 32.5742 27.7871C32.5742 26.8001 31.774 26 30.787 26C29.8001 26 28.9999 26.8001 28.9999 27.7871C28.9999 28.7741 29.8001 29.5742 30.787 29.5742Z" fill="#FFDA2D"/>
<path d="M36.787 29.5742C37.774 29.5742 38.5742 28.7741 38.5742 27.7871C38.5742 26.8001 37.774 26 36.787 26C35.8001 26 34.9999 26.8001 34.9999 27.7871C34.9999 28.7741 35.8001 29.5742 36.787 29.5742Z" fill="#32FCA5"/>
<path d="M59.3889 58.7675H74.5723L58.9303 43.1255C58.2322 42.4275 57.1018 42.426 56.4022 43.1255L50.0751 49.4537L59.3889 58.7675Z" fill="#FF7900"/>
<path d="M60.2313 58.7676H26.3799C26.4371 58.6878 26.5014 58.6116 26.5717 58.5413L42.0243 43.0875C42.7224 42.3906 43.8531 42.3906 44.5512 43.0875L60.2313 58.7676Z" fill="#FFDA2D"/>
<path d="M60.2313 58.7675H50.4999V49.0361L60.2313 58.7675Z" fill="#FFAA17"/>
<path d="M71.9453 72.1671H50.4999C49.513 72.1671 48.7128 72.9673 48.7128 73.9542C48.7128 74.9412 49.513 75.7413 50.4999 75.7413H71.9453C72.9322 75.7413 73.7324 74.9412 73.7324 73.9542C73.7324 72.9673 72.9322 72.1671 71.9453 72.1671Z" fill="#0066B2"/>
<path d="M73.7324 73.9545C73.7324 74.941 72.9317 75.7416 71.9453 75.7416H50.4999V72.1674H71.9453C72.9317 72.1674 73.7324 72.9668 73.7324 73.9545Z" fill="#004692"/>
<path d="M50.4999 68.5929H71.9453C72.9322 68.5929 73.7324 67.7927 73.7324 66.8058C73.7324 65.8188 72.9322 65.0187 71.9453 65.0187H50.4999C49.513 65.0187 48.7128 65.8188 48.7128 66.8058C48.7128 67.7927 49.513 68.5929 50.4999 68.5929Z" fill="#0066B2"/>
<path d="M73.7324 66.806C73.7324 67.7925 72.9317 68.5931 71.9453 68.5931H50.4999V65.0189H71.9453C72.9317 65.0189 73.7324 65.8184 73.7324 66.806Z" fill="#004692"/>
</g>
<g clip-path="url(#clip1)">
<path d="M80.5515 16.605L73.0146 17.0119L70.2059 20.2659C69.6373 20.9289 69.2133 21.7033 68.9611 22.5395C68.7089 23.3757 68.634 24.2554 68.7412 25.1222C68.759 25.2234 68.777 25.3254 68.7951 25.4282C69.0191 26.6991 69.6311 27.8695 70.5469 28.7787C71.4626 29.6879 72.6374 30.2913 73.9099 30.5062C75.1824 30.721 76.4901 30.5367 77.6537 29.9786C78.8172 29.4205 79.7795 28.5159 80.4084 27.389L82.4962 23.6531L80.5515 16.605Z" fill="#F59B2B"/>
<path d="M85.8435 2.14055C86.4618 1.41428 87.3287 0.944679 88.2748 0.823547C89.2209 0.702415 90.1781 0.938458 90.9594 1.48554C91.7407 2.03262 92.29 2.85141 92.4997 3.78186C92.7095 4.71232 92.5647 5.68755 92.0937 6.51694L82.4974 23.6514L73.0106 17.0087L85.8435 2.14055Z" fill="#2E2F2F"/>
<path d="M72.3606 28.0474C73.6853 28.9751 74.6376 30.343 75.0478 31.9073C75.4581 33.4717 75.2995 35.1309 74.6005 36.5892C74.4387 36.9241 74.2499 37.2453 74.0361 37.5496C72.9791 39.0591 71.1826 39.9947 68.6934 40.3309C64.542 40.8941 63.151 42.7144 63.1428 42.7232C63.0801 42.8226 62.9979 42.9082 62.9012 42.9748C62.8045 43.0414 62.6952 43.0877 62.58 43.1108C62.4649 43.134 62.3462 43.1335 62.2313 43.1093C62.1163 43.0852 62.0074 43.038 61.9113 42.9705C61.8151 42.903 61.7337 42.8167 61.6719 42.7169C61.6101 42.617 61.5693 42.5055 61.5518 42.3894C61.5344 42.2732 61.5408 42.1547 61.5705 42.0411C61.6003 41.9275 61.6528 41.8211 61.7249 41.7284C61.7249 41.7284 62.351 40.7571 62.3966 38.7411C62.4092 37.7172 62.3004 36.6954 62.0726 35.697C61.5372 33.243 61.8014 31.2324 62.8584 29.7229C63.8981 28.2429 65.4821 27.2355 67.2632 26.9215C69.0444 26.6074 70.8775 27.0123 72.3606 28.0474V28.0474Z" fill="#FFD848"/>
<path d="M72.3606 28.0474C73.6853 28.9751 74.6376 30.343 75.0479 31.9073C75.4581 33.4717 75.2995 35.1309 74.6005 36.5892L62.3966 38.7411C62.4092 37.7172 62.3004 36.6954 62.0726 35.697C61.5372 33.243 61.8014 31.2324 62.8584 29.7229C63.8981 28.2429 65.4821 27.2355 67.2633 26.9215C69.0444 26.6074 70.8775 27.0123 72.3606 28.0474V28.0474Z" fill="#FFD848"/>
</g>
<defs>
<filter id="filter0_i" x="-6.10352e-05" y="1" width="100" height="104" filterUnits="userSpaceOnUse" color-interpolation-filters="sRGB">
<feFlood flood-opacity="0" result="BackgroundImageFix"/>
<feBlend mode="normal" in="SourceGraphic" in2="BackgroundImageFix" result="shape"/>
<feColorMatrix in="SourceAlpha" type="matrix" values="0 0 0 0 0 0 0 0 0 0 0 0 0 0 0 0 0 0 127 0" result="hardAlpha"/>
<feOffset dy="4"/>
<feGaussianBlur stdDeviation="3.5"/>
<feComposite in2="hardAlpha" operator="arithmetic" k2="-1" k3="1"/>
<feColorMatrix type="matrix" values="0 0 0 0 0 0 0 0 0 0 0 0 0 0 0 0 0 0 0.2 0"/>
<feBlend mode="normal" in2="shape" result="effect1_innerShadow"/>
</filter>
<filter id="filter1_d" x="15.9999" y="21" width="69" height="69" filterUnits="userSpaceOnUse" color-interpolation-filters="sRGB">
<feFlood flood-opacity="0" result="BackgroundImageFix"/>
<feColorMatrix in="SourceAlpha" type="matrix" values="0 0 0 0 0 0 0 0 0 0 0 0 0 0 0 0 0 0 127 0"/>
<feOffset dy="4"/>
<feGaussianBlur stdDeviation="2"/>
<feColorMatrix type="matrix" values="0 0 0 0 0 0 0 0 0 0 0 0 0 0 0 0 0 0 0.25 0"/>
<feBlend mode="normal" in2="BackgroundImageFix" result="effect1_dropShadow"/>
<feBlend mode="normal" in="SourceGraphic" in2="effect1_dropShadow" result="shape"/>
</filter>
<clipPath id="clip0">
<rect width="61" height="61" fill="white" transform="translate(19.9999 21)"/>
</clipPath>
<clipPath id="clip1">
<rect width="37.1427" height="37.1427" fill="white" transform="translate(91.859 0.200806) rotate(80)"/>
</clipPath>
</defs>
</svg>
