<svg width="100" height="100" viewBox="0 0 100 100" fill="none" xmlns="http://www.w3.org/2000/svg">
<g filter="url(#filter0_i)">
<path d="M50 100C77.6142 100 100 77.6142 100 50C100 22.3858 77.6142 0 50 0C22.3858 0 0 22.3858 0 50C0 77.6142 22.3858 100 50 100Z" fill="#1A9DD9"/>
</g>
<g filter="url(#filter1_d)">
<path d="M80.9423 25.2484V83.5427C80.9423 84.2385 80.8052 84.9275 80.5388 85.5704C80.2724 86.2132 79.8819 86.7972 79.3897 87.2891C78.8975 87.7809 78.3132 88.171 77.6701 88.4369C77.0271 88.7028 76.338 88.8394 75.6421 88.8389H33.2485C32.5527 88.8394 31.8635 88.7028 31.2205 88.4369C30.5775 88.171 29.9932 87.7809 29.5009 87.2891C29.0087 86.7972 28.6182 86.2132 28.3518 85.5704C28.0854 84.9275 27.9483 84.2385 27.9483 83.5427V80.8906H67.7097C68.4058 80.8906 69.095 80.7535 69.738 80.4871C70.3811 80.2208 70.9654 79.8304 71.4575 79.3382C71.9497 78.846 72.3401 78.2617 72.6065 77.6187C72.8728 76.9756 73.0099 76.2864 73.0099 75.5904V19.9482H75.658C77.061 19.9525 78.405 20.5127 79.3956 21.5062C80.3861 22.4998 80.9423 23.8455 80.9423 25.2484V25.2484Z" fill="#D1D2D4"/>
</g>
<path d="M25.3002 12H67.6938C68.3899 12 69.0791 12.1371 69.7221 12.4035C70.3652 12.6698 70.9495 13.0602 71.4416 13.5524C71.9338 14.0446 72.3242 14.6289 72.5906 15.2719C72.8569 15.915 72.994 16.6042 72.994 17.3002V75.5905C72.994 76.2865 72.8569 76.9757 72.5906 77.6188C72.3242 78.2618 71.9338 78.8461 71.4416 79.3383C70.9495 79.8304 70.3652 80.2208 69.7221 80.4872C69.0791 80.7536 68.3899 80.8907 67.6938 80.8907H25.3002C24.6042 80.8907 23.915 80.7536 23.2719 80.4872C22.6289 80.2208 22.0446 79.8304 21.5524 79.3383C21.0602 78.8461 20.6698 78.2618 20.4035 77.6188C20.1371 76.9757 20 76.2865 20 75.5905V17.3002C20 15.8945 20.5584 14.5464 21.5524 13.5524C22.5464 12.5584 23.8945 12 25.3002 12V12Z" fill="white"/>
<path d="M75.6421 19.9482V78.2425C75.6421 78.9385 75.5051 79.6277 75.2387 80.2708C74.9723 80.9138 74.5819 81.4981 74.0898 81.9903C73.5976 82.4824 73.0133 82.8729 72.3702 83.1392C71.7272 83.4056 71.038 83.5427 70.3419 83.5427H27.9483V80.8906H67.7097C68.4058 80.8906 69.095 80.7535 69.738 80.4871C70.3811 80.2208 70.9654 79.8304 71.4575 79.3382C71.9497 78.846 72.3401 78.2617 72.6065 77.6187C72.8728 76.9756 73.0099 76.2864 73.0099 75.5904V19.9482H75.6421Z" fill="#BDBEC0"/>
<path d="M61.0696 18.6243L65.0457 22.6004V12H57.0934V22.6004L61.0696 18.6243Z" fill="#EB5B6C"/>
<path d="M72.994 33.3042V75.5905C72.994 76.2865 72.8569 76.9757 72.5906 77.6188C72.3242 78.2618 71.9338 78.8461 71.4416 79.3383C70.9495 79.8305 70.3652 80.2209 69.7221 80.4872C69.0791 80.7536 68.3899 80.8907 67.6938 80.8907H25.3002C24.6042 80.8907 23.915 80.7536 23.2719 80.4872C22.6289 80.2209 22.0446 79.8305 21.5524 79.3383C21.0602 78.8461 20.6698 78.2618 20.4035 77.6188C20.1371 76.9757 20 76.2865 20 75.5905V74.1233C35.9523 68.0796 58.5646 56.012 72.994 33.3042Z" fill="#EEEEEE"/>
<path d="M27.9483 23.9244V34.5209H38.5487V23.9244H27.9483Z" fill="#FFDA2E"/>
<path d="M27.9483 53.0696H38.5487V42.4731H27.9483V53.0696Z" fill="#FFDA2E"/>
<path d="M27.9483 59.6937H38.5487V70.2941H27.9483V59.6937Z" fill="#FFDA2E"/>
<path d="M34.5726 31.8727C34.3982 31.8719 34.2258 31.8363 34.0653 31.768C33.9049 31.6997 33.7597 31.6002 33.6382 31.4751L30.9861 28.827L32.8588 26.9543L34.5726 28.668L41.5865 21.6541L43.4592 23.5268L35.507 31.4791C35.3848 31.6031 35.2394 31.7017 35.0791 31.7692C34.9187 31.8368 34.7466 31.8719 34.5726 31.8727V31.8727Z" fill="#1A9DD9"/>
<path d="M34.5726 50.4215C34.3982 50.4206 34.2258 50.385 34.0653 50.3167C33.9049 50.2484 33.7597 50.1489 33.6382 50.0238L30.9861 47.3757L32.8588 45.503L34.5726 47.2127L41.5865 40.2028L43.4592 42.0755L35.507 50.0278C35.3848 50.1518 35.2394 50.2504 35.0791 50.3179C34.9187 50.3855 34.7466 50.4207 34.5726 50.4215V50.4215Z" fill="#1A9DD9"/>
<path d="M45.1729 30.5487H58.4215V33.1968H45.1729V30.5487Z" fill="#ACABB2"/>
<path d="M45.1729 25.2485H53.1252V27.8966H45.1729V25.2485Z" fill="#898991"/>
<path d="M45.1729 49.0974H58.4215V51.7455H45.1729V49.0974Z" fill="#ACABB2"/>
<path d="M45.1729 43.7972H53.1252V46.4454H45.1729V43.7972Z" fill="#898991"/>
<path d="M45.1729 66.3181H58.4215V68.9662H45.1729V66.3181Z" fill="#ACABB2"/>
<path d="M45.1729 61.0178H53.1252V63.6699H45.1729V61.0178Z" fill="#898991"/>
<path d="M55.7694 61.0178H58.4215V63.6699H55.7694V61.0178Z" fill="#ACABB2"/>
<defs>
<filter id="filter0_i" x="0" y="0" width="100" height="104" filterUnits="userSpaceOnUse" color-interpolation-filters="sRGB">
<feFlood flood-opacity="0" result="BackgroundImageFix"/>
<feBlend mode="normal" in="SourceGraphic" in2="BackgroundImageFix" result="shape"/>
<feColorMatrix in="SourceAlpha" type="matrix" values="0 0 0 0 0 0 0 0 0 0 0 0 0 0 0 0 0 0 127 0" result="hardAlpha"/>
<feOffset dy="4"/>
<feGaussianBlur stdDeviation="3.5"/>
<feComposite in2="hardAlpha" operator="arithmetic" k2="-1" k3="1"/>
<feColorMatrix type="matrix" values="0 0 0 0 0 0 0 0 0 0 0 0 0 0 0 0 0 0 0.2 0"/>
<feBlend mode="normal" in2="shape" result="effect1_innerShadow"/>
</filter>
<filter id="filter1_d" x="23.9483" y="19.9482" width="60.994" height="76.8907" filterUnits="userSpaceOnUse" color-interpolation-filters="sRGB">
<feFlood flood-opacity="0" result="BackgroundImageFix"/>
<feColorMatrix in="SourceAlpha" type="matrix" values="0 0 0 0 0 0 0 0 0 0 0 0 0 0 0 0 0 0 127 0"/>
<feOffset dy="4"/>
<feGaussianBlur stdDeviation="2"/>
<feColorMatrix type="matrix" values="0 0 0 0 0 0 0 0 0 0 0 0 0 0 0 0 0 0 0.25 0"/>
<feBlend mode="normal" in2="BackgroundImageFix" result="effect1_dropShadow"/>
<feBlend mode="normal" in="SourceGraphic" in2="effect1_dropShadow" result="shape"/>
</filter>
</defs>
</svg>
