<svg width="100" height="100" viewBox="0 0 100 100" fill="none" xmlns="http://www.w3.org/2000/svg">
<g filter="url(#filter0_i)">
<path d="M50 100C77.6142 100 100 77.6142 100 50C100 22.3858 77.6142 0 50 0C22.3858 0 0 22.3858 0 50C0 77.6142 22.3858 100 50 100Z" fill="#1A9DD9"/>
</g>
<g filter="url(#filter1_d)">
<path d="M20 32.4341L20 78.283C20 78.5141 20.0456 78.743 20.1341 78.9564C20.2227 79.1699 20.3525 79.3638 20.5161 79.5271C20.6798 79.6903 20.874 79.8197 21.0877 79.9078C21.3013 79.9959 21.5303 80.0409 21.7614 80.0404L78.2823 80.0404C78.7484 80.0404 79.1954 79.8553 79.525 79.5257C79.8546 79.1961 80.0397 78.7491 80.0397 78.283L80.0397 32.4341L50.0199 31.2611L20 32.4341Z" fill="white"/>
</g>
<path d="M80.0397 32.4341L80.0397 78.283C80.0397 78.7491 79.8546 79.1961 79.525 79.5257C79.1954 79.8553 78.7484 80.0404 78.2823 80.0404H50.0199L50.0199 31.2611L80.0397 32.4341Z" fill="#F7F7F7"/>
<path d="M80.0397 21.762C80.0397 21.2956 79.8547 20.8481 79.5252 20.5179C79.1958 20.1877 78.7488 20.0017 78.2823 20.0006L21.7614 20.0006C21.2943 20.0006 20.8462 20.1862 20.5159 20.5165C20.1856 20.8469 20 21.2949 20 21.762L20 32.434L80.0397 32.434V21.762Z" fill="#4E4E4E"/>
<path d="M80.0397 21.762V32.434L50.0199 32.434V20.0006L78.2823 20.0006C78.7488 20.0017 79.1958 20.1877 79.5252 20.5179C79.8547 20.8481 80.0397 21.2956 80.0397 21.762V21.762Z" fill="#383838"/>
<path d="M26.7575 27.5149C27.7281 27.5149 28.5149 26.7281 28.5149 25.7575C28.5149 24.7868 27.7281 24 26.7575 24C25.7868 24 25 24.7868 25 25.7575C25 26.7281 25.7868 27.5149 26.7575 27.5149Z" fill="#E63A51"/>
<path d="M32.7575 27.5149C33.7281 27.5149 34.5149 26.7281 34.5149 25.7575C34.5149 24.7868 33.7281 24 32.7575 24C31.7868 24 31 24.7868 31 25.7575C31 26.7281 31.7868 27.5149 32.7575 27.5149Z" fill="#FFDA2E"/>
<path d="M38.7575 27.5149C39.7281 27.5149 40.5149 26.7281 40.5149 25.7575C40.5149 24.7868 39.7281 24 38.7575 24C37.7868 24 37 24.7868 37 25.7575C37 26.7281 37.7868 27.5149 38.7575 27.5149Z" fill="#73BF8D"/>
<path d="M71.1292 41.2294L46.501 41.2294C46.0349 41.2294 45.5879 41.4145 45.2583 41.7441C44.9287 42.0737 44.7435 42.5207 44.7435 42.9868L44.7435 71.13C44.7435 71.5961 44.9287 72.0431 45.2583 72.3727C45.5879 72.7023 46.0349 72.8874 46.501 72.8874H71.1292C71.5953 72.8874 72.0423 72.7023 72.3719 72.3727C72.7015 72.0431 72.8867 71.5961 72.8867 71.13V42.9868C72.8867 42.5207 72.7015 42.0737 72.3719 41.7441C72.0423 41.4145 71.5953 41.2294 71.1292 41.2294Z" fill="#353535"/>
<path d="M72.8867 42.9868V71.13C72.8867 71.5961 72.7015 72.0431 72.3719 72.3727C72.0423 72.7023 71.5953 72.8874 71.1292 72.8874H50.0199L50.0199 41.2294L71.1292 41.2294C71.5953 41.2294 72.0423 41.4145 72.3719 41.7441C72.7015 42.0737 72.8867 42.5207 72.8867 42.9868Z" fill="#1E1E1E"/>
<path d="M69.3678 66.45L50.3658 44.7443L69.3559 44.7443L69.3678 66.45Z" fill="#D8B92A"/>
<path d="M48.2624 47.6667L67.2525 69.3725H48.2624L48.2624 47.6667Z" fill="#FFDA2E"/>
<path d="M67.2525 69.3725H50.0199L50.0199 49.6787L67.2525 69.3725Z" fill="#E7C112"/>
<path d="M41.2207 53.5395V42.9868C41.2207 42.5207 41.0355 42.0737 40.7059 41.7441C40.3763 41.4145 39.9293 41.2294 39.4632 41.2294H28.9145C28.448 41.2294 28.0006 41.4144 27.6704 41.7439C27.3402 42.0733 27.1541 42.5204 27.1531 42.9868L27.1531 53.5395C27.1531 53.7708 27.1986 53.9999 27.2872 54.2136C27.3757 54.4273 27.5054 54.6215 27.669 54.785C27.8326 54.9486 28.0267 55.0783 28.2404 55.1669C28.4541 55.2554 28.6832 55.3009 28.9145 55.3009H39.4672C39.933 55.2988 40.379 55.1123 40.7076 54.7822C41.0362 54.4521 41.2207 54.0053 41.2207 53.5395Z" fill="#353535"/>
<path d="M37.7097 49.293L33.161 44.7443H37.7097V49.293Z" fill="#FFDA2E"/>
<path d="M30.672 47.2333L35.2207 51.7899H30.672V47.2333Z" fill="#FFDA2E"/>
<path d="M39.4672 58.8158L28.9145 58.8158C28.4473 58.8158 27.9993 59.0014 27.669 59.3317C27.3387 59.662 27.1531 60.1101 27.1531 60.5772L27.1531 71.1299C27.1531 71.361 27.1987 71.5899 27.2872 71.8034C27.3758 72.0169 27.5056 72.2108 27.6692 72.374C27.8328 72.5373 28.0271 72.6666 28.2407 72.7547C28.4544 72.8428 28.6834 72.8879 28.9145 72.8874H39.4672C39.9333 72.8874 40.3803 72.7022 40.7099 72.3726C41.0395 72.043 41.2246 71.596 41.2246 71.1299V60.5772C41.2252 60.3461 41.1801 60.1171 41.092 59.9035C41.0039 59.6898 40.8746 59.4956 40.7113 59.3319C40.5481 59.1683 40.3541 59.0385 40.1407 58.95C39.9272 58.8614 39.6983 58.8158 39.4672 58.8158V58.8158Z" fill="#353535"/>
<path d="M37.7097 66.8993L33.161 62.3347H37.7097V66.8993Z" fill="#FFDA2E"/>
<path d="M30.672 64.8237L35.2207 69.3724H30.672V64.8237Z" fill="#FFDA2E"/>
<defs>
<filter id="filter0_i" x="0" y="0" width="100" height="104" filterUnits="userSpaceOnUse" color-interpolation-filters="sRGB">
<feFlood flood-opacity="0" result="BackgroundImageFix"/>
<feBlend mode="normal" in="SourceGraphic" in2="BackgroundImageFix" result="shape"/>
<feColorMatrix in="SourceAlpha" type="matrix" values="0 0 0 0 0 0 0 0 0 0 0 0 0 0 0 0 0 0 127 0" result="hardAlpha"/>
<feOffset dy="4"/>
<feGaussianBlur stdDeviation="3.5"/>
<feComposite in2="hardAlpha" operator="arithmetic" k2="-1" k3="1"/>
<feColorMatrix type="matrix" values="0 0 0 0 0 0 0 0 0 0 0 0 0 0 0 0 0 0 0.2 0"/>
<feBlend mode="normal" in2="shape" result="effect1_innerShadow"/>
</filter>
<filter id="filter1_d" x="16" y="31.2611" width="68.0397" height="56.7793" filterUnits="userSpaceOnUse" color-interpolation-filters="sRGB">
<feFlood flood-opacity="0" result="BackgroundImageFix"/>
<feColorMatrix in="SourceAlpha" type="matrix" values="0 0 0 0 0 0 0 0 0 0 0 0 0 0 0 0 0 0 127 0"/>
<feOffset dy="4"/>
<feGaussianBlur stdDeviation="2"/>
<feColorMatrix type="matrix" values="0 0 0 0 0 0 0 0 0 0 0 0 0 0 0 0 0 0 0.25 0"/>
<feBlend mode="normal" in2="BackgroundImageFix" result="effect1_dropShadow"/>
<feBlend mode="normal" in="SourceGraphic" in2="effect1_dropShadow" result="shape"/>
</filter>
</defs>
</svg>
