<svg width="20" height="20" viewBox="0 0 20 20" fill="none" xmlns="http://www.w3.org/2000/svg">
<path fill-rule="evenodd" clip-rule="evenodd" d="M0 10C0 4.47715 4.47715 0 10 0C15.5228 0 20 4.47715 20 10C20 15.5228 15.5228 20 10 20C4.47715 20 0 15.5228 0 10ZM11.4826 7.77912H14.3073V6.96984H11.4826V7.77912ZM14.0584 8.45847C13.7184 8.30812 13.3365 8.23264 12.9119 8.23264C12.1976 8.23264 11.6175 8.45599 11.169 8.89961C10.7219 9.34447 10.498 9.9836 10.498 10.817C10.498 11.7055 10.7451 12.3477 11.2424 12.7418C11.7372 13.1366 12.3098 13.3333 12.9589 13.3333C13.7448 13.3333 14.3562 13.0995 14.7928 12.6323C15.0725 12.3378 15.2305 12.0476 15.265 11.763H13.9636C13.8884 11.9041 13.8006 12.0142 13.7009 12.094C13.5196 12.2407 13.2832 12.3143 12.9941 12.3143C12.7194 12.3143 12.4854 12.2537 12.291 12.133C11.9699 11.9394 11.8018 11.6009 11.7805 11.1189H15.3321C15.3378 10.7038 15.324 10.3845 15.2895 10.1643C15.2305 9.78747 15.1013 9.45584 14.9 9.16999C14.6792 8.84578 14.3989 8.6082 14.0584 8.45847ZM9.56038 7.35963C9.22485 6.9092 8.65602 6.67842 7.852 6.66667H4.66667V13.1694H7.63688C7.97179 13.1694 8.2816 13.1409 8.56821 13.0821C8.85483 13.0227 9.10255 12.9145 9.31265 12.7555C9.49954 12.6169 9.65508 12.4461 9.77925 12.2438C9.97555 11.9381 10.0734 11.5923 10.0734 11.2068C10.0734 10.8331 9.98747 10.5151 9.81688 10.254C9.64442 9.99227 9.39104 9.80108 9.05489 9.67981C9.27627 9.56845 9.44373 9.4447 9.55787 9.30982C9.76169 9.06852 9.86267 8.74865 9.86267 8.35205C9.86267 7.96659 9.76169 7.63619 9.56038 7.35963Z" fill="black"/>
<path fill-rule="evenodd" clip-rule="evenodd" d="M5.98056 7.79582H7.4155C7.73096 7.79582 7.9906 7.82985 8.19505 7.89729C8.43087 7.99505 8.54877 8.19489 8.54877 8.49868C8.54877 8.77092 8.45909 8.96148 8.28097 9.06914C8.10161 9.1768 7.86893 9.23062 7.58358 9.23062H5.98056V7.79582ZM12.1518 9.54493C12.3318 9.36179 12.5864 9.27022 12.9125 9.27022C13.2136 9.27022 13.4651 9.35622 13.6695 9.52885C13.8715 9.7027 13.9856 9.95514 14.0088 10.2892H11.8119C11.8583 9.97618 11.9718 9.72807 12.1518 9.54493ZM5.98056 10.3066H7.60364C7.88587 10.309 8.106 10.3462 8.26279 10.4167C8.54313 10.5435 8.68236 10.7756 8.68236 11.1146C8.68236 11.5143 8.53811 11.7841 8.24899 11.9264C8.09032 12.0025 7.86705 12.0408 7.58107 12.0408H5.98056V10.3066Z" fill="black"/>
</svg>
