<svg width="20" height="20" viewBox="0 0 20 20" fill="none" xmlns="http://www.w3.org/2000/svg">
<path fill-rule="evenodd" clip-rule="evenodd" d="M0 10C0 4.47715 4.47715 0 10 0C15.5228 0 20 4.47715 20 10C20 15.5228 15.5228 20 10 20C4.47715 20 0 15.5228 0 10ZM10.5231 13.2817C10.5231 13.2817 10.7156 13.2607 10.8142 13.1567C10.9045 13.0615 10.9013 12.8817 10.9013 12.8817C10.9013 12.8817 10.8894 12.0424 11.2864 11.9185C11.6776 11.7966 12.1801 12.7302 12.7132 13.0891C13.116 13.3606 13.4217 13.3012 13.4217 13.3012L14.8465 13.2817C14.8465 13.2817 15.5915 13.2366 15.2383 12.6615C15.2091 12.6144 15.0322 12.236 14.1792 11.4586C13.2856 10.6449 13.4055 10.7765 14.4813 9.3687C15.1366 8.51143 15.3985 7.98806 15.3166 7.76427C15.2388 7.55021 14.7568 7.60705 14.7568 7.60705L13.153 7.61678C13.153 7.61678 13.0341 7.60091 12.9459 7.65263C12.8598 7.70333 12.804 7.82162 12.804 7.82162C12.804 7.82162 12.5505 8.4848 12.2119 9.04914C11.4977 10.2393 11.2123 10.3023 11.0954 10.2285C10.8236 10.0559 10.8914 9.53616 10.8914 9.16693C10.8914 8.01315 11.0699 7.53228 10.5445 7.40784C10.3703 7.36636 10.2419 7.33922 9.79585 7.33461C9.22354 7.32898 8.7394 7.33666 8.46498 7.46827C8.28238 7.55584 8.14152 7.75147 8.2276 7.76273C8.33351 7.77656 8.57349 7.82623 8.70079 7.99625C8.86513 8.21595 8.85939 8.70859 8.85939 8.70859C8.85939 8.70859 8.95382 10.0667 8.63871 10.2352C8.42272 10.3509 8.12639 10.1148 7.48938 9.0348C7.16332 8.48173 6.91707 7.87027 6.91707 7.87027C6.91707 7.87027 6.8696 7.75607 6.78456 7.69462C6.68178 7.62037 6.53831 7.59732 6.53831 7.59732L5.01441 7.60705C5.01441 7.60705 4.78538 7.6132 4.70138 7.71101C4.62678 7.79756 4.69564 7.9773 4.69564 7.9773C4.69564 7.9773 5.88879 10.7176 7.24001 12.0987C8.47906 13.3647 9.88559 13.2817 9.88559 13.2817H10.5231Z" fill="black"/>
</svg>
