<svg width="1440" height="675" viewBox="0 0 1440 675" fill="none" xmlns="http://www.w3.org/2000/svg">
<path fill-rule="evenodd" clip-rule="evenodd" d="M0 14.0001L29.5 32.5L60.5 46C102.5 60 148 71.1565 217 71.1565C285 71.1565 297.186 76.5563 400 49.5C504.5 22 544 0.500198 620.5 0.50006C688 0.499938 760.85 -0.686718 837 34.5C909.5 68 996.5 50.4999 1078.5 71.1565C1170.28 94.2765 1104.16 84.429 1221.5 104C1264.5 111.172 1284.5 107 1320.5 84.0001L1362.5 61.5001L1404 39.5001L1440 24.5001V675H1406C1371 675 1303 675 1234 675C1166 675 1097 675 1029 675C960 675 891 675 823 675C754 675 686 675 617 675C549 675 480 675 411 675C343 675 274 675 206 675C137 675 69 675 34 675H0V14.0001Z" fill="url(#paint0_linear)"/>
<defs>
<linearGradient id="paint0_linear" x1="720" y1="17.6425" x2="720" y2="893.896" gradientUnits="userSpaceOnUse">
<stop stop-color="#009FE3"/>
<stop offset="0.729167" stop-color="#009FE3" stop-opacity="0"/>
</linearGradient>
</defs>
</svg>
